# xmcd
# 
# Track frame offsets:
#     150
#     15350
#     36789
#     54104
#     65940
#     80043
#     92223
#     107322
#     126826
#     139069
#     148668
#     164704
#     183308
#     204622
#     221035
# 
# Disc length: 3145
# 
# Revision: 0
# Processed by: cddbd v1.5.2PL0 Copyright (c) Steve Scherf et al.
# Submitted via: fre:ac v1.0.17
# 
DISCID=db0c470f
DTITLE=Various Artist - Texas Line - Country Blues
DYEAR=0
DGENRE=Country
TTITLE0=Ricky Nelson - Hello Marylou
TTITLE1=The Judds - Bye Bye Baby Blues
TTITLE2=Tracy Bird - I'm Fom The Country
TTITLE3=John Denver - TakeMe Home Country Roads
TTITLE4=Jimmie Davis, Charles Mitchell - You Are My Sunshine
TTITLE5=Hank Williams - Jambalaya
TTITLE6=Traditional - I'm A Man Of Constant Sorrow
TTITLE7=Fred Rose - Blue Eyes Crying In The Rain
TTITLE8=Mark Wight, Ronnie Rogers - I'm Going Through The Big D
TTITLE9=Georges Jones, Roger Miller - Tall Tall Trees
TTITLE10=Chuck Berry - You Never Can Tell
TTITLE11=Rick Giles, Susan Longacre - Wild Man
TTITLE12=Traditional - Will The Circle Be Unbroken
TTITLE13=Little Texas - God Bless texas
TTITLE14=Bill Monroe - Blue Moon of Kentucky
EXTD=
EXTT0=
EXTT1=
EXTT2=
EXTT3=
EXTT4=
EXTT5=
EXTT6=
EXTT7=
EXTT8=
EXTT9=
EXTT10=
EXTT11=
EXTT12=
EXTT13=
EXTT14=
PLAYORDER=
